STARTFONT 2.1
COMMENT $XConsortium: lutBS10.bdf,v 1.9 94/04/02 16:11:08 gildea Exp $
COMMENT  (c) Copyright Bigelow & Holmes 1986, 1985. Lucida is a registered
COMMENT  trademark of Bigelow & Holmes. See LEGAL NOTICE file for terms 
COMMENT  of the license. 
COMMENT GRID 0010 0010 0200 0200
FONT -RFX-SereneTypewriter-Bold-R-Normal-Sans-10-100-75-75-M-60-windows-1251
SIZE 10 72 72
FONTBOUNDINGBOX 7 11 0 -2
STARTPROPERTIES 24
FONTNAME_REGISTRY ""
FOUNDRY "RFX"
FAMILY_NAME "SereneTypewriter"
WEIGHT_NAME "Bold"
SLANT "R"
SETWIDTH_NAME "Normal"
ADD_STYLE_NAME "Sans"
PIXEL_SIZE 10
POINT_SIZE 100
RESOLUTION_X 75
RESOLUTION_Y 75
SPACING "M"
AVERAGE_WIDTH 60
CHARSET_REGISTRY "windows"
CHARSET_ENCODING "1251"
FONT_ASCENT 9
FONT_DESCENT 2
DEFAULT_CHAR 0
COPYRIGHT "Copyright Bigelow & Holmes 1986, 1985."
FACE_NAME "Lucida Sans Typewriter Bold"
COPYRIGHT2 "Cyrillic, Euro and line drawing glyphs copyright 2000 Dmitry Yu. Bolkhovityanov, bolkhov@inp.nsk.su"
SOURCEDATE "Sun Jan 23 15:15:33 2000"
PKGVERSION "1.1"
ASSEMBLER "cvtbdf.pl (Linux)"
ENDPROPERTIES
CHARS 262
STARTCHAR null
ENCODING 0
SWIDTH 602 0
DWIDTH 6 0
BBX 4 7 1 0
BITMAP
F0
F0
F0
F0
F0
F0
F0
ENDCHAR
STARTCHAR ctrlA
ENCODING 1
SWIDTH 602 0
DWIDTH 6 0
BBX 5 8 0 0
BITMAP
40
A0
00
30
30
58
78
58
ENDCHAR
STARTCHAR ctrlB
ENCODING 2
SWIDTH 602 0
DWIDTH 6 0
BBX 5 8 0 0
BITMAP
40
A0
00
70
68
70
68
70
ENDCHAR
STARTCHAR ctrlC
ENCODING 3
SWIDTH 602 0
DWIDTH 6 0
BBX 5 8 0 0
BITMAP
40
A0
00
38
60
60
60
38
ENDCHAR
STARTCHAR ctrlD
ENCODING 4
SWIDTH 602 0
DWIDTH 6 0
BBX 5 8 0 0
BITMAP
40
A0
00
70
68
68
68
70
ENDCHAR
STARTCHAR ctrlE
ENCODING 5
SWIDTH 602 0
DWIDTH 6 0
BBX 5 8 0 0
BITMAP
40
A0
00
78
60
78
60
78
ENDCHAR
STARTCHAR ctrlF
ENCODING 6
SWIDTH 602 0
DWIDTH 6 0
BBX 5 8 0 0
BITMAP
40
A0
00
78
60
70
60
60
ENDCHAR
STARTCHAR ctrlG
ENCODING 7
SWIDTH 602 0
DWIDTH 6 0
BBX 5 8 0 0
BITMAP
40
A0
00
38
60
68
68
38
ENDCHAR
STARTCHAR ctrlH
ENCODING 8
SWIDTH 602 0
DWIDTH 6 0
BBX 5 8 0 0
BITMAP
40
A0
00
68
68
78
68
68
ENDCHAR
STARTCHAR ctrlI
ENCODING 9
SWIDTH 602 0
DWIDTH 6 0
BBX 5 8 0 0
BITMAP
40
A0
00
78
30
30
30
78
ENDCHAR
STARTCHAR ctrlJ
ENCODING 10
SWIDTH 602 0
DWIDTH 6 0
BBX 5 9 0 -1
BITMAP
40
A0
00
38
18
18
18
18
70
ENDCHAR
STARTCHAR ldcornsqlr
ENCODING 11
SWIDTH 602 0
DWIDTH 6 0
BBX 4 6 0 3
BITMAP
30
30
30
30
30
F0
ENDCHAR
STARTCHAR ldcornsqur
ENCODING 12
SWIDTH 602 0
DWIDTH 6 0
BBX 4 6 0 -2
BITMAP
F0
30
30
30
30
30
ENDCHAR
STARTCHAR ldcornsqul
ENCODING 13
SWIDTH 602 0
DWIDTH 6 0
BBX 4 6 2 -2
BITMAP
F0
C0
C0
C0
C0
C0
ENDCHAR
STARTCHAR ldcornsqll
ENCODING 14
SWIDTH 602 0
DWIDTH 6 0
BBX 4 6 2 3
BITMAP
C0
C0
C0
C0
C0
F0
ENDCHAR
STARTCHAR ldcross
ENCODING 15
SWIDTH 602 0
DWIDTH 6 0
BBX 6 11 0 -2
BITMAP
30
30
30
30
30
FC
30
30
30
30
30
ENDCHAR
STARTCHAR ctrlP
ENCODING 16
SWIDTH 602 0
DWIDTH 6 0
BBX 5 8 0 0
BITMAP
40
A0
00
70
68
68
70
60
ENDCHAR
STARTCHAR ctrlQ
ENCODING 17
SWIDTH 602 0
DWIDTH 6 0
BBX 5 9 0 -1
BITMAP
40
A0
00
30
68
68
68
30
18
ENDCHAR
STARTCHAR ldhorizontal
ENCODING 18
SWIDTH 602 0
DWIDTH 6 0
BBX 6 1 0 3
BITMAP
FC
ENDCHAR
STARTCHAR ctrlS
ENCODING 19
SWIDTH 602 0
DWIDTH 6 0
BBX 5 8 0 0
BITMAP
40
A0
00
38
60
30
18
70
ENDCHAR
STARTCHAR ctrlT
ENCODING 20
SWIDTH 602 0
DWIDTH 6 0
BBX 5 8 0 0
BITMAP
40
A0
00
78
30
30
30
30
ENDCHAR
STARTCHAR ldteelft
ENCODING 21
SWIDTH 602 0
DWIDTH 6 0
BBX 4 11 2 -2
BITMAP
C0
C0
C0
C0
C0
F0
C0
C0
C0
C0
C0
ENDCHAR
STARTCHAR ldteert
ENCODING 22
SWIDTH 602 0
DWIDTH 6 0
BBX 4 11 0 -2
BITMAP
30
30
30
30
30
F0
30
30
30
30
30
ENDCHAR
STARTCHAR ldteebt
ENCODING 23
SWIDTH 602 0
DWIDTH 6 0
BBX 6 6 0 3
BITMAP
30
30
30
30
30
FC
ENDCHAR
STARTCHAR ldteetp
ENCODING 24
SWIDTH 602 0
DWIDTH 6 0
BBX 6 6 0 -2
BITMAP
FC
30
30
30
30
30
ENDCHAR
STARTCHAR ldvertical
ENCODING 25
SWIDTH 602 0
DWIDTH 6 0
BBX 2 11 2 -2
BITMAP
C0
C0
C0
C0
C0
C0
C0
C0
C0
C0
C0
ENDCHAR
STARTCHAR ctrlZ
ENCODING 26
SWIDTH 602 0
DWIDTH 6 0
BBX 5 8 0 0
BITMAP
40
A0
00
78
18
30
60
78
ENDCHAR
STARTCHAR ctrlBRL
ENCODING 27
SWIDTH 602 0
DWIDTH 6 0
BBX 5 8 0 0
BITMAP
40
A0
00
38
30
30
30
38
ENDCHAR
STARTCHAR ctrlBSLASH
ENCODING 28
SWIDTH 602 0
DWIDTH 6 0
BBX 5 8 0 0
BITMAP
40
A0
00
60
20
30
10
18
ENDCHAR
STARTCHAR ctrlBRR
ENCODING 29
SWIDTH 602 0
DWIDTH 6 0
BBX 5 8 0 0
BITMAP
40
A0
00
38
18
18
18
38
ENDCHAR
STARTCHAR ctrlCARET
ENCODING 30
SWIDTH 602 0
DWIDTH 6 0
BBX 5 6 0 2
BITMAP
40
A0
00
30
58
48
ENDCHAR
STARTCHAR ctrlUND
ENCODING 31
SWIDTH 602 0
DWIDTH 6 0
BBX 5 8 0 0
BITMAP
40
A0
00
00
00
00
00
78
ENDCHAR
STARTCHAR space
ENCODING 32
SWIDTH 602 0
DWIDTH 6 0
BBX 0 0 0 0
BITMAP
ENDCHAR
STARTCHAR exclam
ENCODING 33
SWIDTH 602 0
DWIDTH 6 0
BBX 2 7 2 0
BITMAP
C0
C0
C0
40
00
C0
C0
ENDCHAR
STARTCHAR quotedbl
ENCODING 34
SWIDTH 602 0
DWIDTH 6 0
BBX 3 3 2 5
BITMAP
A0
A0
A0
ENDCHAR
STARTCHAR numbersign
ENCODING 35
SWIDTH 602 0
DWIDTH 6 0
BBX 6 7 0 0
BITMAP
68
68
EC
68
EC
68
68
ENDCHAR
STARTCHAR dollar
ENCODING 36
SWIDTH 602 0
DWIDTH 6 0
BBX 5 11 1 -2
BITMAP
10
10
78
C0
E0
70
38
18
F0
40
40
ENDCHAR
STARTCHAR percent
ENCODING 37
SWIDTH 602 0
DWIDTH 6 0
BBX 6 7 0 0
BITMAP
40
A4
48
30
48
94
08
ENDCHAR
STARTCHAR ampersand
ENCODING 38
SWIDTH 602 0
DWIDTH 6 0
BBX 5 7 1 0
BITMAP
60
D0
D0
60
D8
D0
68
ENDCHAR
STARTCHAR quotesingle
ENCODING 39
SWIDTH 602 0
DWIDTH 6 0
BBX 1 3 3 5
BITMAP
80
80
80
ENDCHAR
STARTCHAR parenleft
ENCODING 40
SWIDTH 602 0
DWIDTH 6 0
BBX 4 9 1 -1
BITMAP
30
60
C0
C0
C0
C0
C0
60
30
ENDCHAR
STARTCHAR parenright
ENCODING 41
SWIDTH 602 0
DWIDTH 6 0
BBX 4 9 1 -1
BITMAP
C0
60
30
30
30
30
30
60
C0
ENDCHAR
STARTCHAR asterisk
ENCODING 42
SWIDTH 602 0
DWIDTH 6 0
BBX 5 3 1 4
BITMAP
D8
60
D8
ENDCHAR
STARTCHAR plus
ENCODING 43
SWIDTH 602 0
DWIDTH 6 0
BBX 5 5 1 1
BITMAP
20
20
F8
20
20
ENDCHAR
STARTCHAR comma
ENCODING 44
SWIDTH 602 0
DWIDTH 6 0
BBX 2 4 2 -2
BITMAP
C0
C0
40
80
ENDCHAR
STARTCHAR minus
ENCODING 45
SWIDTH 602 0
DWIDTH 6 0
BBX 5 1 1 3
BITMAP
F8
ENDCHAR
STARTCHAR period
ENCODING 46
SWIDTH 602 0
DWIDTH 6 0
BBX 2 2 2 0
BITMAP
C0
C0
ENDCHAR
STARTCHAR slash
ENCODING 47
SWIDTH 602 0
DWIDTH 6 0
BBX 6 9 0 -1
BITMAP
0C
0C
18
18
30
60
60
C0
C0
ENDCHAR
STARTCHAR zero
ENCODING 48
SWIDTH 602 0
DWIDTH 6 0
BBX 5 7 1 0
BITMAP
70
D8
D8
D8
D8
D8
70
ENDCHAR
STARTCHAR one
ENCODING 49
SWIDTH 602 0
DWIDTH 6 0
BBX 4 7 1 0
BITMAP
30
F0
30
30
30
30
30
ENDCHAR
STARTCHAR two
ENCODING 50
SWIDTH 602 0
DWIDTH 6 0
BBX 5 7 1 0
BITMAP
70
D8
18
30
60
C0
F8
ENDCHAR
STARTCHAR three
ENCODING 51
SWIDTH 602 0
DWIDTH 6 0
BBX 5 7 1 0
BITMAP
70
D8
18
70
18
D8
70
ENDCHAR
STARTCHAR four
ENCODING 52
SWIDTH 602 0
DWIDTH 6 0
BBX 5 7 1 0
BITMAP
30
70
B0
B0
F8
30
30
ENDCHAR
STARTCHAR five
ENCODING 53
SWIDTH 602 0
DWIDTH 6 0
BBX 5 7 1 0
BITMAP
F8
C0
C0
F0
18
D8
70
ENDCHAR
STARTCHAR six
ENCODING 54
SWIDTH 602 0
DWIDTH 6 0
BBX 5 7 1 0
BITMAP
70
D8
C0
F0
D8
D8
70
ENDCHAR
STARTCHAR seven
ENCODING 55
SWIDTH 602 0
DWIDTH 6 0
BBX 5 7 1 0
BITMAP
F8
F8
08
10
30
60
60
ENDCHAR
STARTCHAR eight
ENCODING 56
SWIDTH 602 0
DWIDTH 6 0
BBX 5 7 1 0
BITMAP
70
D8
D8
70
D8
D8
70
ENDCHAR
STARTCHAR nine
ENCODING 57
SWIDTH 602 0
DWIDTH 6 0
BBX 5 7 1 0
BITMAP
70
D8
D8
78
18
D8
70
ENDCHAR
STARTCHAR colon
ENCODING 58
SWIDTH 602 0
DWIDTH 6 0
BBX 2 6 2 0
BITMAP
C0
C0
00
00
C0
C0
ENDCHAR
STARTCHAR semicolon
ENCODING 59
SWIDTH 602 0
DWIDTH 6 0
BBX 2 8 2 -2
BITMAP
C0
C0
00
00
C0
C0
40
80
ENDCHAR
STARTCHAR less
ENCODING 60
SWIDTH 602 0
DWIDTH 6 0
BBX 4 5 1 1
BITMAP
30
60
C0
60
30
ENDCHAR
STARTCHAR equal
ENCODING 61
SWIDTH 602 0
DWIDTH 6 0
BBX 5 3 1 2
BITMAP
F8
00
F8
ENDCHAR
STARTCHAR greater
ENCODING 62
SWIDTH 602 0
DWIDTH 6 0
BBX 4 5 1 1
BITMAP
C0
60
30
60
C0
ENDCHAR
STARTCHAR question
ENCODING 63
SWIDTH 602 0
DWIDTH 6 0
BBX 5 7 1 0
BITMAP
F0
18
18
70
00
60
60
ENDCHAR
STARTCHAR at
ENCODING 64
SWIDTH 602 0
DWIDTH 6 0
BBX 5 7 1 0
BITMAP
70
88
B8
A8
B8
80
78
ENDCHAR
STARTCHAR A
ENCODING 65
SWIDTH 602 0
DWIDTH 6 0
BBX 6 7 0 0
BITMAP
30
30
58
58
FC
8C
8C
ENDCHAR
STARTCHAR B
ENCODING 66
SWIDTH 602 0
DWIDTH 6 0
BBX 5 7 1 0
BITMAP
F0
C8
C8
F0
C8
C8
F0
ENDCHAR
STARTCHAR C
ENCODING 67
SWIDTH 602 0
DWIDTH 6 0
BBX 5 7 1 0
BITMAP
78
E8
C0
C0
C0
E0
78
ENDCHAR
STARTCHAR D
ENCODING 68
SWIDTH 602 0
DWIDTH 6 0
BBX 5 7 1 0
BITMAP
F0
D8
C8
C8
C8
D8
F0
ENDCHAR
STARTCHAR E
ENCODING 69
SWIDTH 602 0
DWIDTH 6 0
BBX 4 7 1 0
BITMAP
F0
C0
C0
F0
C0
C0
F0
ENDCHAR
STARTCHAR F
ENCODING 70
SWIDTH 602 0
DWIDTH 6 0
BBX 5 7 1 0
BITMAP
F8
C0
C0
F0
C0
C0
C0
ENDCHAR
STARTCHAR G
ENCODING 71
SWIDTH 602 0
DWIDTH 6 0
BBX 5 7 1 0
BITMAP
78
E0
C0
C8
C8
E8
78
ENDCHAR
STARTCHAR H
ENCODING 72
SWIDTH 602 0
DWIDTH 6 0
BBX 5 7 1 0
BITMAP
C8
C8
C8
F8
C8
C8
C8
ENDCHAR
STARTCHAR I
ENCODING 73
SWIDTH 602 0
DWIDTH 6 0
BBX 4 7 1 0
BITMAP
F0
60
60
60
60
60
F0
ENDCHAR
STARTCHAR J
ENCODING 74
SWIDTH 602 0
DWIDTH 6 0
BBX 4 9 0 -2
BITMAP
70
30
30
30
30
30
30
30
E0
ENDCHAR
STARTCHAR K
ENCODING 75
SWIDTH 602 0
DWIDTH 6 0
BBX 5 7 1 0
BITMAP
C8
D0
D0
E0
D0
C8
C8
ENDCHAR
STARTCHAR L
ENCODING 76
SWIDTH 602 0
DWIDTH 6 0
BBX 5 7 1 0
BITMAP
C0
C0
C0
C0
C0
C0
F8
ENDCHAR
STARTCHAR M
ENCODING 77
SWIDTH 602 0
DWIDTH 6 0
BBX 6 7 0 0
BITMAP
84
CC
FC
FC
AC
AC
8C
ENDCHAR
STARTCHAR N
ENCODING 78
SWIDTH 602 0
DWIDTH 6 0
BBX 5 7 1 0
BITMAP
88
C8
E8
F8
B8
98
88
ENDCHAR
STARTCHAR O
ENCODING 79
SWIDTH 602 0
DWIDTH 6 0
BBX 5 7 1 0
BITMAP
70
C8
C8
C8
C8
C8
70
ENDCHAR
STARTCHAR P
ENCODING 80
SWIDTH 602 0
DWIDTH 6 0
BBX 5 7 1 0
BITMAP
F0
C8
C8
F0
C0
C0
C0
ENDCHAR
STARTCHAR Q
ENCODING 81
SWIDTH 602 0
DWIDTH 6 0
BBX 5 9 1 -2
BITMAP
70
C8
C8
C8
C8
C8
70
30
18
ENDCHAR
STARTCHAR R
ENCODING 82
SWIDTH 602 0
DWIDTH 6 0
BBX 5 7 1 0
BITMAP
F0
C8
C8
F0
D0
C8
C8
ENDCHAR
STARTCHAR S
ENCODING 83
SWIDTH 602 0
DWIDTH 6 0
BBX 5 7 1 0
BITMAP
78
C0
E0
70
38
18
F0
ENDCHAR
STARTCHAR T
ENCODING 84
SWIDTH 602 0
DWIDTH 6 0
BBX 6 7 0 0
BITMAP
FC
30
30
30
30
30
30
ENDCHAR
STARTCHAR U
ENCODING 85
SWIDTH 602 0
DWIDTH 6 0
BBX 5 7 1 0
BITMAP
C8
C8
C8
C8
C8
C8
70
ENDCHAR
STARTCHAR V
ENCODING 86
SWIDTH 602 0
DWIDTH 6 0
BBX 6 7 0 0
BITMAP
C4
C4
CC
68
78
30
30
ENDCHAR
STARTCHAR W
ENCODING 87
SWIDTH 602 0
DWIDTH 6 0
BBX 6 7 0 0
BITMAP
C4
D4
D4
D4
FC
68
68
ENDCHAR
STARTCHAR X
ENCODING 88
SWIDTH 602 0
DWIDTH 6 0
BBX 5 7 1 0
BITMAP
C8
C8
70
20
70
98
98
ENDCHAR
STARTCHAR Y
ENCODING 89
SWIDTH 602 0
DWIDTH 6 0
BBX 6 7 0 0
BITMAP
C4
C4
68
30
30
30
30
ENDCHAR
STARTCHAR Z
ENCODING 90
SWIDTH 602 0
DWIDTH 6 0
BBX 5 7 1 0
BITMAP
F8
18
30
70
60
C0
F8
ENDCHAR
STARTCHAR bracketleft
ENCODING 91
SWIDTH 602 0
DWIDTH 6 0
BBX 4 9 2 -1
BITMAP
F0
C0
C0
C0
C0
C0
C0
C0
F0
ENDCHAR
STARTCHAR backslash
ENCODING 92
SWIDTH 602 0
DWIDTH 6 0
BBX 6 9 0 -1
BITMAP
C0
C0
60
60
30
18
18
0C
0C
ENDCHAR
STARTCHAR bracketright
ENCODING 93
SWIDTH 602 0
DWIDTH 6 0
BBX 4 9 1 -1
BITMAP
F0
30
30
30
30
30
30
30
F0
ENDCHAR
STARTCHAR asciicircum
ENCODING 94
SWIDTH 602 0
DWIDTH 6 0
BBX 6 6 0 1
BITMAP
30
30
58
58
8C
8C
ENDCHAR
STARTCHAR underscore
ENCODING 95
SWIDTH 602 0
DWIDTH 6 0
BBX 6 1 0 -1
BITMAP
FC
ENDCHAR
STARTCHAR grave
ENCODING 96
SWIDTH 602 0
DWIDTH 6 0
BBX 3 2 2 7
BITMAP
C0
60
ENDCHAR
STARTCHAR a
ENCODING 97
SWIDTH 602 0
DWIDTH 6 0
BBX 5 6 1 0
BITMAP
70
18
78
D8
D8
68
ENDCHAR
STARTCHAR b
ENCODING 98
SWIDTH 602 0
DWIDTH 6 0
BBX 5 8 1 0
BITMAP
C0
C0
F0
D8
D8
D8
D8
F0
ENDCHAR
STARTCHAR c
ENCODING 99
SWIDTH 602 0
DWIDTH 6 0
BBX 4 6 1 0
BITMAP
70
C0
C0
C0
C0
70
ENDCHAR
STARTCHAR d
ENCODING 100
SWIDTH 602 0
DWIDTH 6 0
BBX 5 8 1 0
BITMAP
18
18
78
D8
D8
D8
D8
68
ENDCHAR
STARTCHAR e
ENCODING 101
SWIDTH 602 0
DWIDTH 6 0
BBX 5 6 1 0
BITMAP
70
D8
D8
F8
C0
78
ENDCHAR
STARTCHAR f
ENCODING 102
SWIDTH 602 0
DWIDTH 6 0
BBX 5 8 1 0
BITMAP
38
60
F8
60
60
60
60
60
ENDCHAR
STARTCHAR g
ENCODING 103
SWIDTH 602 0
DWIDTH 6 0
BBX 5 8 1 -2
BITMAP
78
D8
D8
D8
D8
78
18
F0
ENDCHAR
STARTCHAR h
ENCODING 104
SWIDTH 602 0
DWIDTH 6 0
BBX 5 8 1 0
BITMAP
C0
C0
D0
F8
D8
D8
D8
D8
ENDCHAR
STARTCHAR i
ENCODING 105
SWIDTH 602 0
DWIDTH 6 0
BBX 4 8 1 0
BITMAP
30
00
F0
30
30
30
30
30
ENDCHAR
STARTCHAR j
ENCODING 106
SWIDTH 602 0
DWIDTH 6 0
BBX 4 10 1 -2
BITMAP
30
00
F0
30
30
30
30
30
30
E0
ENDCHAR
STARTCHAR k
ENCODING 107
SWIDTH 602 0
DWIDTH 6 0
BBX 5 8 1 0
BITMAP
C0
C0
C8
D0
E0
F0
D8
C8
ENDCHAR
STARTCHAR l
ENCODING 108
SWIDTH 602 0
DWIDTH 6 0
BBX 4 8 1 0
BITMAP
F0
30
30
30
30
30
30
30
ENDCHAR
STARTCHAR m
ENCODING 109
SWIDTH 602 0
DWIDTH 6 0
BBX 5 6 1 0
BITMAP
F0
A8
A8
A8
A8
A8
ENDCHAR
STARTCHAR n
ENCODING 110
SWIDTH 602 0
DWIDTH 6 0
BBX 5 6 1 0
BITMAP
B0
D8
D8
D8
D8
D8
ENDCHAR
STARTCHAR o
ENCODING 111
SWIDTH 602 0
DWIDTH 6 0
BBX 5 6 1 0
BITMAP
70
D8
D8
D8
D8
70
ENDCHAR
STARTCHAR p
ENCODING 112
SWIDTH 602 0
DWIDTH 6 0
BBX 5 8 1 -2
BITMAP
B0
D8
D8
D8
D8
F0
C0
C0
ENDCHAR
STARTCHAR q
ENCODING 113
SWIDTH 602 0
DWIDTH 6 0
BBX 5 8 1 -2
BITMAP
78
D8
D8
D8
D8
78
18
18
ENDCHAR
STARTCHAR r
ENCODING 114
SWIDTH 602 0
DWIDTH 6 0
BBX 5 6 1 0
BITMAP
D8
F8
C0
C0
C0
C0
ENDCHAR
STARTCHAR s
ENCODING 115
SWIDTH 602 0
DWIDTH 6 0
BBX 5 6 1 0
BITMAP
78
C0
F0
78
18
F0
ENDCHAR
STARTCHAR t
ENCODING 116
SWIDTH 602 0
DWIDTH 6 0
BBX 5 7 1 0
BITMAP
60
F8
60
60
60
60
38
ENDCHAR
STARTCHAR u
ENCODING 117
SWIDTH 602 0
DWIDTH 6 0
BBX 5 6 1 0
BITMAP
D8
D8
D8
D8
D8
68
ENDCHAR
STARTCHAR v
ENCODING 118
SWIDTH 602 0
DWIDTH 6 0
BBX 6 6 0 0
BITMAP
CC
CC
68
78
30
30
ENDCHAR
STARTCHAR w
ENCODING 119
SWIDTH 602 0
DWIDTH 6 0
BBX 6 6 0 0
BITMAP
C4
D4
D4
D4
68
68
ENDCHAR
STARTCHAR x
ENCODING 120
SWIDTH 602 0
DWIDTH 6 0
BBX 6 6 0 0
BITMAP
EC
68
30
30
58
DC
ENDCHAR
STARTCHAR y
ENCODING 121
SWIDTH 602 0
DWIDTH 6 0
BBX 5 8 1 -2
BITMAP
C8
C8
D8
50
70
30
20
60
ENDCHAR
STARTCHAR z
ENCODING 122
SWIDTH 602 0
DWIDTH 6 0
BBX 5 6 1 0
BITMAP
F8
38
70
E0
C0
F8
ENDCHAR
STARTCHAR braceleft
ENCODING 123
SWIDTH 602 0
DWIDTH 6 0
BBX 5 9 1 -1
BITMAP
38
60
60
20
C0
20
60
60
38
ENDCHAR
STARTCHAR bar
ENCODING 124
SWIDTH 602 0
DWIDTH 6 0
BBX 2 9 2 -1
BITMAP
C0
C0
C0
C0
C0
C0
C0
C0
C0
ENDCHAR
STARTCHAR braceright
ENCODING 125
SWIDTH 602 0
DWIDTH 6 0
BBX 5 9 1 -1
BITMAP
E0
30
30
20
18
20
30
30
E0
ENDCHAR
STARTCHAR asciitilde
ENCODING 126
SWIDTH 602 0
DWIDTH 6 0
BBX 6 2 0 3
BITMAP
74
B8
ENDCHAR
STARTCHAR quotesinglbase
ENCODING 130
SWIDTH 602 0
DWIDTH 6 0
BBX 2 4 2 -2
BITMAP
C0
C0
40
80
ENDCHAR
STARTCHAR quotedblbase
ENCODING 132
SWIDTH 602 0
DWIDTH 6 0
BBX 5 4 1 -2
BITMAP
D8
D8
48
90
ENDCHAR
STARTCHAR ellipsis
ENCODING 133
SWIDTH 602 0
DWIDTH 6 0
BBX 4 1 1 0
BITMAP
90
ENDCHAR
STARTCHAR dagger
ENCODING 134
SWIDTH 602 0
DWIDTH 6 0
BBX 6 8 0 -1
BITMAP
30
30
FC
30
30
30
30
30
ENDCHAR
STARTCHAR daggerdbl
ENCODING 135
SWIDTH 602 0
DWIDTH 6 0
BBX 6 8 0 -1
BITMAP
30
30
FC
30
30
FC
30
30
ENDCHAR
STARTCHAR Euro
ENCODING 136
SWIDTH 602 0
DWIDTH 6 0
BBX 6 7 0 0
BITMAP
3C
60
F8
60
F8
60
3C
ENDCHAR
STARTCHAR perthousand
ENCODING 137
SWIDTH 602 0
DWIDTH 6 0
BBX 6 8 0 0
BITMAP
40
A0
4C
30
C0
28
54
28
ENDCHAR
STARTCHAR guilsinglleft
ENCODING 139
SWIDTH 602 0
DWIDTH 6 0
BBX 3 3 2 2
BITMAP
60
C0
60
ENDCHAR
STARTCHAR quoteleft
ENCODING 145
SWIDTH 602 0
DWIDTH 6 0
BBX 2 4 2 4
BITMAP
40
80
C0
C0
ENDCHAR
STARTCHAR quoteright
ENCODING 146
SWIDTH 602 0
DWIDTH 6 0
BBX 2 4 2 4
BITMAP
C0
C0
40
80
ENDCHAR
STARTCHAR quotedblleft
ENCODING 147
SWIDTH 602 0
DWIDTH 6 0
BBX 5 4 1 4
BITMAP
48
90
D8
D8
ENDCHAR
STARTCHAR quotedblright
ENCODING 148
SWIDTH 602 0
DWIDTH 6 0
BBX 5 4 1 4
BITMAP
D8
D8
48
90
ENDCHAR
STARTCHAR bullet
ENCODING 149
SWIDTH 602 0
DWIDTH 6 0
BBX 3 3 2 2
BITMAP
E0
E0
E0
ENDCHAR
STARTCHAR endash
ENCODING 150
SWIDTH 602 0
DWIDTH 6 0
BBX 4 1 1 3
BITMAP
F0
ENDCHAR
STARTCHAR emdash
ENCODING 151
SWIDTH 602 0
DWIDTH 6 0
BBX 4 1 1 3
BITMAP
F0
ENDCHAR
STARTCHAR trademark
ENCODING 153
SWIDTH 602 0
DWIDTH 6 0
BBX 6 3 0 4
BITMAP
FC
5C
5C
ENDCHAR
STARTCHAR guilsinglright
ENCODING 155
SWIDTH 602 0
DWIDTH 6 0
BBX 3 3 2 2
BITMAP
C0
60
C0
ENDCHAR
STARTCHAR space
ENCODING 160
SWIDTH 602 0
DWIDTH 6 0
BBX 0 0 0 0
BITMAP
ENDCHAR
STARTCHAR afii10062
ENCODING 161
SWIDTH 602 0
DWIDTH 6 0
BBX 6 9 0 0
BITMAP
78
00
8C
CC
58
78
30
30
60
ENDCHAR
STARTCHAR afii10110
ENCODING 162
SWIDTH 602 0
DWIDTH 6 0
BBX 5 10 1 -2
BITMAP
70
00
C8
C8
D8
50
70
30
20
60
ENDCHAR
STARTCHAR afii10057
ENCODING 163
SWIDTH 602 0
DWIDTH 6 0
BBX 4 9 0 -2
BITMAP
70
30
30
30
30
30
30
30
E0
ENDCHAR
STARTCHAR currency
ENCODING 164
SWIDTH 602 0
DWIDTH 6 0
BBX 6 7 0 0
BITMAP
84
78
68
68
68
78
84
ENDCHAR
STARTCHAR afii10050
ENCODING 165
SWIDTH 602 0
DWIDTH 6 0
BBX 5 8 1 0
BITMAP
08
F8
C0
C0
C0
C0
C0
C0
ENDCHAR
STARTCHAR brokenbar
ENCODING 166
SWIDTH 602 0
DWIDTH 6 0
BBX 2 9 2 -1
BITMAP
C0
C0
C0
00
00
C0
C0
C0
C0
ENDCHAR
STARTCHAR section
ENCODING 167
SWIDTH 602 0
DWIDTH 6 0
BBX 5 8 1 -1
BITMAP
78
C0
F0
98
C8
78
18
F0
ENDCHAR
STARTCHAR afii10023
ENCODING 168
SWIDTH 602 0
DWIDTH 6 0
BBX 4 9 1 0
BITMAP
50
50
00
F0
C0
F0
C0
C0
F0
ENDCHAR
STARTCHAR copyright
ENCODING 169
SWIDTH 602 0
DWIDTH 6 0
BBX 6 7 0 0
BITMAP
78
84
B4
A4
B4
84
78
ENDCHAR
STARTCHAR afii10053
ENCODING 170
SWIDTH 602 0
DWIDTH 6 0
BBX 5 7 1 0
BITMAP
78
E8
C0
F0
C0
E0
78
ENDCHAR
STARTCHAR guillemotleft
ENCODING 171
SWIDTH 602 0
DWIDTH 6 0
BBX 6 3 0 2
BITMAP
6C
D8
6C
ENDCHAR
STARTCHAR logicalnot
ENCODING 172
SWIDTH 602 0
DWIDTH 6 0
BBX 5 3 1 1
BITMAP
F8
08
08
ENDCHAR
STARTCHAR hyphen
ENCODING 173
SWIDTH 602 0
DWIDTH 6 0
BBX 2 1 2 3
BITMAP
C0
ENDCHAR
STARTCHAR registered
ENCODING 174
SWIDTH 602 0
DWIDTH 6 0
BBX 6 7 0 0
BITMAP
78
84
B4
B4
AC
84
78
ENDCHAR
STARTCHAR afii10056
ENCODING 175
SWIDTH 602 0
DWIDTH 6 0
BBX 4 9 1 0
BITMAP
90
90
00
F0
60
60
60
60
F0
ENDCHAR
STARTCHAR degree
ENCODING 176
SWIDTH 602 0
DWIDTH 6 0
BBX 4 3 1 4
BITMAP
60
D0
60
ENDCHAR
STARTCHAR plusminus
ENCODING 177
SWIDTH 602 0
DWIDTH 6 0
BBX 5 7 1 0
BITMAP
20
20
F8
20
20
00
F8
ENDCHAR
STARTCHAR afii10055
ENCODING 178
SWIDTH 602 0
DWIDTH 6 0
BBX 4 7 1 0
BITMAP
F0
60
60
60
60
60
F0
ENDCHAR
STARTCHAR afii10103
ENCODING 179
SWIDTH 602 0
DWIDTH 6 0
BBX 4 8 1 0
BITMAP
30
00
F0
30
30
30
30
30
ENDCHAR
STARTCHAR afii10098
ENCODING 180
SWIDTH 602 0
DWIDTH 6 0
BBX 5 7 1 0
BITMAP
08
F8
C0
C0
C0
C0
C0
ENDCHAR
STARTCHAR mu
ENCODING 181
SWIDTH 602 0
DWIDTH 6 0
BBX 5 8 1 -2
BITMAP
D8
D8
D8
D8
D8
E8
C0
C0
ENDCHAR
STARTCHAR paragraph
ENCODING 182
SWIDTH 602 0
DWIDTH 6 0
BBX 5 8 1 -1
BITMAP
78
E8
E8
68
28
28
28
28
ENDCHAR
STARTCHAR periodcentered
ENCODING 183
SWIDTH 602 0
DWIDTH 6 0
BBX 2 3 2 2
BITMAP
C0
C0
C0
ENDCHAR
STARTCHAR afii10071
ENCODING 184
SWIDTH 602 0
DWIDTH 6 0
BBX 5 9 1 0
BITMAP
50
50
00
70
D8
D8
F8
C0
78
ENDCHAR
STARTCHAR afii61352
ENCODING 185
SWIDTH 602 0
DWIDTH 6 0
BBX 6 7 0 0
BITMAP
90
D0
D0
FC
BC
B0
9C
ENDCHAR
STARTCHAR afii10101
ENCODING 186
SWIDTH 602 0
DWIDTH 6 0
BBX 4 6 1 0
BITMAP
70
C0
E0
C0
C0
70
ENDCHAR
STARTCHAR guillemotright
ENCODING 187
SWIDTH 602 0
DWIDTH 6 0
BBX 6 3 0 2
BITMAP
D8
6C
D8
ENDCHAR
STARTCHAR afii10105
ENCODING 188
SWIDTH 602 0
DWIDTH 6 0
BBX 4 10 1 -2
BITMAP
30
00
F0
30
30
30
30
30
30
E0
ENDCHAR
STARTCHAR afii10054
ENCODING 189
SWIDTH 602 0
DWIDTH 6 0
BBX 5 7 1 0
BITMAP
78
C0
E0
70
38
18
F0
ENDCHAR
STARTCHAR afii10102
ENCODING 190
SWIDTH 602 0
DWIDTH 6 0
BBX 5 6 1 0
BITMAP
78
C0
F0
78
18
F0
ENDCHAR
STARTCHAR afii10104
ENCODING 191
SWIDTH 602 0
DWIDTH 6 0
BBX 4 9 1 0
BITMAP
50
50
00
F0
30
30
30
30
30
ENDCHAR
STARTCHAR afii10017
ENCODING 192
SWIDTH 602 0
DWIDTH 6 0
BBX 6 7 0 0
BITMAP
30
30
58
58
FC
8C
8C
ENDCHAR
STARTCHAR afii10018
ENCODING 193
SWIDTH 602 0
DWIDTH 6 0
BBX 5 7 1 0
BITMAP
F8
C0
C0
F0
C8
C8
F0
ENDCHAR
STARTCHAR afii10019
ENCODING 194
SWIDTH 602 0
DWIDTH 6 0
BBX 5 7 1 0
BITMAP
F0
C8
C8
F0
C8
C8
F0
ENDCHAR
STARTCHAR afii10020
ENCODING 195
SWIDTH 602 0
DWIDTH 6 0
BBX 5 7 1 0
BITMAP
F8
C0
C0
C0
C0
C0
C0
ENDCHAR
STARTCHAR afii10021
ENCODING 196
SWIDTH 602 0
DWIDTH 6 0
BBX 6 8 0 -1
BITMAP
78
58
58
58
58
58
FC
8C
ENDCHAR
STARTCHAR afii10022
ENCODING 197
SWIDTH 602 0
DWIDTH 6 0
BBX 4 7 1 0
BITMAP
F0
C0
C0
F0
C0
C0
F0
ENDCHAR
STARTCHAR afii10024
ENCODING 198
SWIDTH 602 0
DWIDTH 6 0
BBX 6 7 0 0
BITMAP
B4
B4
78
30
78
B4
B4
ENDCHAR
STARTCHAR afii10025
ENCODING 199
SWIDTH 602 0
DWIDTH 6 0
BBX 5 7 1 0
BITMAP
F0
98
18
70
18
18
F0
ENDCHAR
STARTCHAR afii10026
ENCODING 200
SWIDTH 602 0
DWIDTH 6 0
BBX 5 7 1 0
BITMAP
88
98
B8
F8
E8
C8
88
ENDCHAR
STARTCHAR afii10027
ENCODING 201
SWIDTH 602 0
DWIDTH 6 0
BBX 5 9 1 0
BITMAP
70
00
88
98
B8
F8
E8
C8
88
ENDCHAR
STARTCHAR afii10028
ENCODING 202
SWIDTH 602 0
DWIDTH 6 0
BBX 5 7 1 0
BITMAP
C8
D0
D0
E0
D0
C8
C8
ENDCHAR
STARTCHAR afii10029
ENCODING 203
SWIDTH 602 0
DWIDTH 6 0
BBX 5 7 1 0
BITMAP
78
58
58
58
58
58
98
ENDCHAR
STARTCHAR afii10030
ENCODING 204
SWIDTH 602 0
DWIDTH 6 0
BBX 6 7 0 0
BITMAP
84
CC
FC
FC
AC
AC
8C
ENDCHAR
STARTCHAR afii10031
ENCODING 205
SWIDTH 602 0
DWIDTH 6 0
BBX 5 7 1 0
BITMAP
C8
C8
C8
F8
C8
C8
C8
ENDCHAR
STARTCHAR afii10032
ENCODING 206
SWIDTH 602 0
DWIDTH 6 0
BBX 5 7 1 0
BITMAP
70
C8
C8
C8
C8
C8
70
ENDCHAR
STARTCHAR afii10033
ENCODING 207
SWIDTH 602 0
DWIDTH 6 0
BBX 5 7 1 0
BITMAP
F8
C8
C8
C8
C8
C8
C8
ENDCHAR
STARTCHAR afii10034
ENCODING 208
SWIDTH 602 0
DWIDTH 6 0
BBX 5 7 1 0
BITMAP
F0
C8
C8
F0
C0
C0
C0
ENDCHAR
STARTCHAR afii10035
ENCODING 209
SWIDTH 602 0
DWIDTH 6 0
BBX 5 7 1 0
BITMAP
78
E8
C0
C0
C0
E0
78
ENDCHAR
STARTCHAR afii10036
ENCODING 210
SWIDTH 602 0
DWIDTH 6 0
BBX 6 7 0 0
BITMAP
FC
30
30
30
30
30
30
ENDCHAR
STARTCHAR afii10037
ENCODING 211
SWIDTH 602 0
DWIDTH 6 0
BBX 6 7 0 0
BITMAP
8C
CC
58
78
30
30
60
ENDCHAR
STARTCHAR afii10038
ENCODING 212
SWIDTH 602 0
DWIDTH 6 0
BBX 6 7 0 0
BITMAP
30
78
B4
B4
B4
78
30
ENDCHAR
STARTCHAR afii10039
ENCODING 213
SWIDTH 602 0
DWIDTH 6 0
BBX 5 7 1 0
BITMAP
C8
C8
70
20
70
98
98
ENDCHAR
STARTCHAR afii10040
ENCODING 214
SWIDTH 602 0
DWIDTH 6 0
BBX 5 8 1 -1
BITMAP
D0
D0
D0
D0
D0
D0
F8
08
ENDCHAR
STARTCHAR afii10041
ENCODING 215
SWIDTH 602 0
DWIDTH 6 0
BBX 5 7 1 0
BITMAP
98
98
98
78
18
18
18
ENDCHAR
STARTCHAR afii10042
ENCODING 216
SWIDTH 602 0
DWIDTH 6 0
BBX 6 7 0 0
BITMAP
D4
D4
D4
D4
D4
D4
FC
ENDCHAR
STARTCHAR afii10043
ENCODING 217
SWIDTH 602 0
DWIDTH 6 0
BBX 6 8 0 -1
BITMAP
D4
D4
D4
D4
D4
D4
FC
04
ENDCHAR
STARTCHAR afii10044
ENCODING 218
SWIDTH 602 0
DWIDTH 6 0
BBX 6 7 0 0
BITMAP
E0
60
60
78
64
64
78
ENDCHAR
STARTCHAR afii10045
ENCODING 219
SWIDTH 602 0
DWIDTH 6 0
BBX 6 7 0 0
BITMAP
C4
C4
C4
E4
D4
D4
E4
ENDCHAR
STARTCHAR afii10046
ENCODING 220
SWIDTH 602 0
DWIDTH 6 0
BBX 5 7 1 0
BITMAP
C0
C0
C0
F0
C8
C8
F0
ENDCHAR
STARTCHAR afii10047
ENCODING 221
SWIDTH 602 0
DWIDTH 6 0
BBX 5 7 1 0
BITMAP
F0
B8
18
78
18
38
F0
ENDCHAR
STARTCHAR afii10048
ENCODING 222
SWIDTH 602 0
DWIDTH 6 0
BBX 6 7 0 0
BITMAP
98
B4
B4
F4
B4
B4
98
ENDCHAR
STARTCHAR afii10049
ENCODING 223
SWIDTH 602 0
DWIDTH 6 0
BBX 5 7 1 0
BITMAP
78
98
98
78
58
98
98
ENDCHAR
STARTCHAR afii10065
ENCODING 224
SWIDTH 602 0
DWIDTH 6 0
BBX 5 6 1 0
BITMAP
70
18
78
D8
D8
68
ENDCHAR
STARTCHAR afii10066
ENCODING 225
SWIDTH 602 0
DWIDTH 6 0
BBX 5 8 1 0
BITMAP
78
C0
F0
D8
D8
D8
D8
70
ENDCHAR
STARTCHAR afii10067
ENCODING 226
SWIDTH 602 0
DWIDTH 6 0
BBX 5 6 1 0
BITMAP
F0
D8
F0
D8
D8
F0
ENDCHAR
STARTCHAR afii10068
ENCODING 227
SWIDTH 602 0
DWIDTH 6 0
BBX 5 6 1 0
BITMAP
F8
C0
C0
C0
C0
C0
ENDCHAR
STARTCHAR afii10069
ENCODING 228
SWIDTH 602 0
DWIDTH 6 0
BBX 6 7 0 -1
BITMAP
78
58
58
58
58
FC
8C
ENDCHAR
STARTCHAR afii10070
ENCODING 229
SWIDTH 602 0
DWIDTH 6 0
BBX 5 6 1 0
BITMAP
70
D8
D8
F8
C0
78
ENDCHAR
STARTCHAR afii10072
ENCODING 230
SWIDTH 602 0
DWIDTH 6 0
BBX 6 6 0 0
BITMAP
B4
78
30
78
B4
B4
ENDCHAR
STARTCHAR afii10073
ENCODING 231
SWIDTH 602 0
DWIDTH 6 0
BBX 5 6 1 0
BITMAP
70
98
30
18
D8
70
ENDCHAR
STARTCHAR afii10074
ENCODING 232
SWIDTH 602 0
DWIDTH 6 0
BBX 5 6 1 0
BITMAP
88
98
B8
E8
C8
88
ENDCHAR
STARTCHAR afii10075
ENCODING 233
SWIDTH 602 0
DWIDTH 6 0
BBX 5 8 1 0
BITMAP
70
00
88
98
B8
E8
C8
88
ENDCHAR
STARTCHAR afii10076
ENCODING 234
SWIDTH 602 0
DWIDTH 6 0
BBX 5 6 1 0
BITMAP
C8
D0
E0
F0
D8
C8
ENDCHAR
STARTCHAR afii10077
ENCODING 235
SWIDTH 602 0
DWIDTH 6 0
BBX 6 6 0 0
BITMAP
7C
6C
6C
6C
6C
CC
ENDCHAR
STARTCHAR afii10078
ENCODING 236
SWIDTH 602 0
DWIDTH 6 0
BBX 6 6 0 0
BITMAP
84
CC
FC
FC
AC
8C
ENDCHAR
STARTCHAR afii10079
ENCODING 237
SWIDTH 602 0
DWIDTH 6 0
BBX 5 6 1 0
BITMAP
D8
D8
F8
D8
D8
D8
ENDCHAR
STARTCHAR afii10080
ENCODING 238
SWIDTH 602 0
DWIDTH 6 0
BBX 5 6 1 0
BITMAP
70
D8
D8
D8
D8
70
ENDCHAR
STARTCHAR afii10081
ENCODING 239
SWIDTH 602 0
DWIDTH 6 0
BBX 5 6 1 0
BITMAP
F8
D8
D8
D8
D8
D8
ENDCHAR
STARTCHAR afii10082
ENCODING 240
SWIDTH 602 0
DWIDTH 6 0
BBX 5 8 1 -2
BITMAP
B0
D8
D8
D8
D8
F0
C0
C0
ENDCHAR
STARTCHAR afii10083
ENCODING 241
SWIDTH 602 0
DWIDTH 6 0
BBX 4 6 1 0
BITMAP
70
C0
C0
C0
C0
70
ENDCHAR
STARTCHAR afii10084
ENCODING 242
SWIDTH 602 0
DWIDTH 6 0
BBX 6 6 0 0
BITMAP
FC
30
30
30
30
30
ENDCHAR
STARTCHAR afii10085
ENCODING 243
SWIDTH 602 0
DWIDTH 6 0
BBX 5 8 1 -2
BITMAP
C8
C8
D8
50
70
30
20
60
ENDCHAR
STARTCHAR afii10086
ENCODING 244
SWIDTH 602 0
DWIDTH 6 0
BBX 6 10 0 -2
BITMAP
30
30
78
B4
B4
B4
B4
78
30
30
ENDCHAR
STARTCHAR afii10087
ENCODING 245
SWIDTH 602 0
DWIDTH 6 0
BBX 6 6 0 0
BITMAP
EC
68
30
30
58
DC
ENDCHAR
STARTCHAR afii10088
ENCODING 246
SWIDTH 602 0
DWIDTH 6 0
BBX 5 7 1 -1
BITMAP
D0
D0
D0
D0
D0
F8
08
ENDCHAR
STARTCHAR afii10089
ENCODING 247
SWIDTH 602 0
DWIDTH 6 0
BBX 5 6 1 0
BITMAP
D8
D8
D8
F8
58
18
ENDCHAR
STARTCHAR afii10090
ENCODING 248
SWIDTH 602 0
DWIDTH 6 0
BBX 6 6 0 0
BITMAP
D4
D4
D4
D4
D4
FC
ENDCHAR
STARTCHAR afii10091
ENCODING 249
SWIDTH 602 0
DWIDTH 6 0
BBX 6 7 0 -1
BITMAP
D4
D4
D4
D4
D4
FC
04
ENDCHAR
STARTCHAR afii10092
ENCODING 250
SWIDTH 602 0
DWIDTH 6 0
BBX 6 6 0 0
BITMAP
E0
60
78
6C
6C
78
ENDCHAR
STARTCHAR afii10093
ENCODING 251
SWIDTH 602 0
DWIDTH 6 0
BBX 6 6 0 0
BITMAP
CC
CC
EC
D4
D4
EC
ENDCHAR
STARTCHAR afii10094
ENCODING 252
SWIDTH 602 0
DWIDTH 6 0
BBX 5 6 1 0
BITMAP
C0
C0
F0
D8
D8
F0
ENDCHAR
STARTCHAR afii10095
ENCODING 253
SWIDTH 602 0
DWIDTH 6 0
BBX 4 6 1 0
BITMAP
E0
30
70
30
30
E0
ENDCHAR
STARTCHAR afii10096
ENCODING 254
SWIDTH 602 0
DWIDTH 6 0
BBX 6 6 0 0
BITMAP
98
B4
F4
B4
B4
98
ENDCHAR
STARTCHAR afii10097
ENCODING 255
SWIDTH 602 0
DWIDTH 6 0
BBX 5 6 1 0
BITMAP
78
98
98
78
58
98
ENDCHAR
STARTCHAR fl
ENCODING -1
SWIDTH 602 0
DWIDTH 6 0
BBX 5 8 0 0
BITMAP
38
68
F8
68
68
68
68
68
ENDCHAR
STARTCHAR Zcaron
ENCODING -1
SWIDTH 602 0
DWIDTH 6 0
BBX 5 9 1 0
BITMAP
58
30
00
F8
18
30
60
C0
F8
ENDCHAR
STARTCHAR oe
ENCODING -1
SWIDTH 602 0
DWIDTH 6 0
BBX 6 6 0 0
BITMAP
78
B4
B4
BC
B0
7C
ENDCHAR
STARTCHAR Ydieresis
ENCODING -1
SWIDTH 602 0
DWIDTH 6 0
BBX 6 9 0 0
BITMAP
28
28
00
C4
68
68
30
30
30
ENDCHAR
STARTCHAR dotlessi
ENCODING -1
SWIDTH 602 0
DWIDTH 6 0
BBX 4 6 1 0
BITMAP
F0
30
30
30
30
30
ENDCHAR
STARTCHAR lslash
ENCODING -1
SWIDTH 602 0
DWIDTH 6 0
BBX 6 8 1 0
BITMAP
F0
30
3C
30
F0
30
30
30
ENDCHAR
STARTCHAR Lslash
ENCODING -1
SWIDTH 602 0
DWIDTH 6 0
BBX 6 7 0 0
BITMAP
60
60
68
70
E0
60
7C
ENDCHAR
STARTCHAR fi
ENCODING -1
SWIDTH 602 0
DWIDTH 6 0
BBX 5 8 0 0
BITMAP
38
60
F8
68
68
68
68
68
ENDCHAR
STARTCHAR OE
ENCODING -1
SWIDTH 602 0
DWIDTH 6 0
BBX 6 7 0 0
BITMAP
7C
D0
D0
DC
D0
D0
7C
ENDCHAR
STARTCHAR caron
ENCODING -1
SWIDTH 602 0
DWIDTH 6 0
BBX 4 2 1 7
BITMAP
B0
60
ENDCHAR
STARTCHAR ogonek
ENCODING -1
SWIDTH 602 0
DWIDTH 6 0
BBX 3 2 2 -2
BITMAP
80
60
ENDCHAR
STARTCHAR hungarumlaut
ENCODING -1
SWIDTH 602 0
DWIDTH 6 0
BBX 5 2 1 7
BITMAP
D8
90
ENDCHAR
STARTCHAR dotaccent
ENCODING -1
SWIDTH 602 0
DWIDTH 6 0
BBX 2 2 2 7
BITMAP
C0
C0
ENDCHAR
STARTCHAR breve
ENCODING -1
SWIDTH 602 0
DWIDTH 6 0
BBX 5 2 1 7
BITMAP
88
70
ENDCHAR
STARTCHAR tilde
ENCODING -1
SWIDTH 602 0
DWIDTH 6 0
BBX 5 2 1 7
BITMAP
68
B0
ENDCHAR
STARTCHAR circumflex
ENCODING -1
SWIDTH 602 0
DWIDTH 6 0
BBX 4 2 1 7
BITMAP
60
B0
ENDCHAR
STARTCHAR scaron
ENCODING -1
SWIDTH 602 0
DWIDTH 6 0
BBX 5 9 1 0
BITMAP
58
30
00
78
C0
F0
78
18
F0
ENDCHAR
STARTCHAR ring
ENCODING -1
SWIDTH 602 0
DWIDTH 6 0
BBX 4 3 1 6
BITMAP
60
B0
60
ENDCHAR
STARTCHAR florin
ENCODING -1
SWIDTH 602 0
DWIDTH 6 0
BBX 5 8 1 -1
BITMAP
38
60
60
F8
60
60
C0
C0
ENDCHAR
STARTCHAR fraction
ENCODING -1
SWIDTH 602 0
DWIDTH 6 0
BBX 6 7 0 0
BITMAP
0C
18
18
30
60
60
C0
ENDCHAR
STARTCHAR Scaron
ENCODING -1
SWIDTH 602 0
DWIDTH 6 0
BBX 5 9 1 0
BITMAP
58
30
00
78
E0
70
38
18
F0
ENDCHAR
STARTCHAR zcaron
ENCODING -1
SWIDTH 602 0
DWIDTH 6 0
BBX 5 9 1 0
BITMAP
58
30
00
F8
38
70
E0
C0
F8
ENDCHAR
ENDFONT
